<?xml version="1.0" standalone="no"?>
<!DOCTYPE svg PUBLIC "-//W3C//DTD SVG 20010904//EN"
 "http://www.w3.org/TR/2001/REC-SVG-20010904/DTD/svg10.dtd">
<svg version="1.0" xmlns="http://www.w3.org/2000/svg"
 width="500.000000pt" height="500.000000pt" viewBox="0 0 500.000000 500.000000"
 preserveAspectRatio="xMidYMid meet">
<metadata>
Created by potrace 1.16, written by Peter Selinger 2001-2019
</metadata>
<g transform="translate(0.000000,500.000000) scale(0.100000,-0.100000)"
fill="#000000" stroke="none">
<path d="M2340 4904 c-19 -2 -78 -9 -130 -14 -193 -21 -448 -85 -632 -159
-136 -54 -384 -186 -460 -245 -15 -12 -62 -46 -105 -76 -75 -54 -324 -292
-373 -358 -14 -19 -31 -40 -37 -47 -7 -8 -13 -16 -13 -19 0 -3 -12 -18 -26
-33 -74 -80 -236 -364 -309 -543 -59 -145 -161 -512 -157 -567 1 -13 -2 -23
-6 -23 -5 0 -7 -13 -4 -30 2 -16 0 -30 -6 -30 -6 0 -8 -88 -6 -252 5 -310 6
-320 23 -334 9 -7 11 -13 3 -18 -7 -4 -7 -16 -1 -39 6 -17 12 -41 14 -52 12
-67 81 -311 111 -393 72 -194 204 -441 324 -604 146 -199 357 -405 550 -538
50 -33 90 -66 90 -71 0 -6 4 -8 9 -4 6 3 35 -11 66 -31 74 -47 325 -167 395
-188 30 -9 62 -21 70 -25 9 -5 58 -19 110 -31 52 -12 102 -26 111 -31 37 -18
237 -49 388 -61 232 -17 463 1 731 58 63 13 330 99 385 123 546 244 933 598
1193 1091 68 130 142 308 142 344 0 14 4 26 9 28 6 2 22 46 36 98 15 52 33
116 41 142 8 26 14 54 14 62 0 9 5 16 12 16 9 0 9 3 1 11 -11 11 -6 49 6 49 3
0 6 17 7 38 0 20 6 106 13 190 9 119 9 187 0 300 -6 81 -13 163 -14 182 -1 19
-5 42 -8 50 -3 8 -10 35 -15 60 -64 300 -192 617 -342 848 -63 98 -67 108 -48
114 24 8 -1 38 -32 38 -16 0 -30 3 -30 8 0 10 -148 181 -229 266 -80 82 -245
217 -361 294 -304 201 -662 335 -1033 387 -105 15 -411 27 -477 19z m505 -73
c593 -87 1119 -385 1494 -844 106 -130 209 -293 295 -467 113 -228 172 -417
221 -706 86 -507 -42 -1103 -341 -1587 -218 -354 -531 -638 -919 -834 -380
-193 -746 -274 -1170 -259 -446 15 -870 153 -1246 404 -221 148 -401 315 -552
512 -203 264 -362 599 -435 915 -60 260 -66 315 -66 535 0 180 3 223 27 355
54 294 111 473 224 700 187 375 466 693 808 918 135 89 384 208 541 260 155
50 330 90 474 106 52 6 111 13 130 15 76 9 393 -5 515 -23z"/>
<path d="M2270 4793 c-25 -2 -89 -10 -142 -18 -644 -98 -1230 -476 -1572
-1015 -176 -277 -278 -535 -342 -865 -25 -127 -28 -162 -28 -375 -1 -256 9
-342 65 -571 73 -300 245 -645 444 -894 90 -112 282 -299 394 -384 566 -431
1308 -581 2002 -406 453 114 892 388 1188 740 263 313 454 740 517 1155 22
143 25 490 5 630 -50 356 -186 701 -403 1022 -362 536 -987 905 -1650 977 -89
10 -369 12 -478 4z m500 -39 c257 -30 489 -98 725 -213 452 -221 798 -559
1030 -1006 125 -239 202 -477 241 -735 25 -167 23 -473 -5 -647 -52 -333 -187
-679 -369 -943 -283 -413 -710 -730 -1180 -879 -285 -91 -572 -124 -874 -102
-95 7 -189 16 -208 21 -19 5 -87 21 -150 36 -568 131 -1079 489 -1393 974
-446 690 -496 1548 -131 2262 100 194 201 341 370 536 38 44 245 227 314 279
291 214 695 374 1055 417 163 19 412 19 575 0z"/>
<path d="M2237 4715 c-65 -7 -124 -16 -132 -19 -10 -3 -15 -20 -15 -45 0 -45
15 -63 24 -28 9 36 94 65 111 38 3 -6 13 -76 22 -156 19 -166 18 -170 -52
-159 -50 8 -54 11 -187 171 -106 127 -138 154 -138 116 0 -10 -11 -99 -24
-197 -18 -134 -28 -183 -40 -191 -9 -7 -16 -15 -16 -19 0 -9 68 -1 103 13 30
12 28 31 -4 31 -16 0 -19 7 -19 45 0 51 7 57 89 74 53 11 55 11 83 -16 29 -28
37 -58 16 -66 -7 -2 -10 -8 -6 -12 4 -4 38 -1 75 8 61 14 145 24 226 26 27 1
40 21 13 21 -25 0 -36 27 -45 116 -6 49 -13 117 -17 150 l-7 61 34 5 c44 7 76
-5 84 -32 3 -11 11 -18 16 -15 12 8 12 52 -1 76 -12 22 -22 22 -193 4z"/>
<path d="M2490 4722 c0 -6 10 -12 23 -14 21 -3 22 -6 20 -118 -3 -181 -10
-219 -39 -226 -46 -12 -23 -21 69 -28 50 -4 120 -9 154 -12 l61 -6 21 48 c12
26 19 49 16 52 -3 3 -20 -9 -38 -26 -30 -29 -38 -32 -99 -32 -83 0 -89 7 -80
91 l7 64 55 -3 c52 -3 71 -13 83 -46 8 -22 17 2 22 62 6 63 -4 81 -25 43 -14
-28 -42 -34 -91 -21 l-42 11 7 57 c4 31 10 60 14 63 4 4 36 4 72 0 59 -5 66
-9 79 -35 l14 -29 14 26 c22 42 4 63 -59 71 -131 14 -258 18 -258 8z"/>
<path d="M3070 4654 c0 -3 9 -13 21 -23 l21 -17 -46 -119 c-51 -134 -56 -179
-24 -220 28 -36 101 -66 165 -68 69 -3 89 18 143 146 58 137 64 147 100 147
49 0 34 17 -36 40 -67 23 -92 21 -58 -4 19 -14 19 -16 -5 -84 -13 -38 -37 -98
-55 -133 -25 -52 -37 -66 -63 -73 -44 -12 -101 1 -130 30 -30 30 -27 57 18
173 51 130 59 143 93 135 56 -12 22 17 -54 47 -77 30 -90 33 -90 23z"/>
<path d="M1513 4507 c-73 -35 -135 -65 -138 -68 -7 -7 21 -76 35 -84 6 -4 10
6 10 24 0 32 38 71 70 71 11 0 40 -43 88 -130 40 -72 72 -136 72 -142 0 -6 -8
-17 -17 -24 -10 -7 -15 -15 -12 -18 6 -6 47 9 117 41 34 16 44 39 13 30 -10
-2 -24 -2 -30 2 -10 7 -151 269 -151 282 0 9 48 29 71 29 11 0 31 -7 44 -16
17 -11 25 -13 25 -4 0 22 -34 70 -50 69 -8 0 -74 -28 -147 -62z"/>
<path d="M3510 4481 c0 -5 6 -11 14 -14 7 -3 16 -17 20 -32 6 -22 -6 -45 -70
-138 -87 -128 -98 -139 -131 -131 -40 10 -25 -10 32 -45 51 -31 84 -36 57 -9
-7 7 -12 20 -12 30 0 19 119 197 132 198 4 0 7 -8 7 -17 0 -49 35 -339 42
-347 11 -12 46 20 66 59 9 16 47 74 86 128 64 91 73 98 99 95 42 -7 34 8 -27
48 -56 38 -83 40 -51 5 15 -16 16 -23 6 -43 -19 -35 -114 -168 -121 -168 -4 0
-10 42 -15 93 -4 50 -8 97 -9 102 -18 143 -15 134 -61 165 -43 31 -64 37 -64
21z"/>
<path d="M1250 4365 c0 -9 -12 -20 -27 -25 -54 -20 -76 -35 -95 -65 -26 -43
-23 -79 11 -117 l29 -33 127 0 c114 0 128 -2 141 -19 21 -30 17 -52 -17 -80
-43 -37 -93 -39 -139 -6 -43 31 -42 12 2 -47 41 -53 42 -54 57 -34 9 11 28 23
43 26 30 8 90 59 108 94 19 37 4 87 -36 117 -34 26 -36 26 -143 19 -71 -4
-116 -3 -129 4 -57 31 -15 101 60 101 24 0 54 -7 66 -16 43 -30 44 -8 3 44
-42 53 -61 64 -61 37z"/>
<path d="M2310 4230 c-389 -49 -706 -193 -994 -451 -195 -176 -378 -454 -461
-703 -70 -210 -86 -300 -92 -521 -5 -172 -2 -217 15 -320 85 -494 343 -893
767 -1186 257 -178 614 -282 965 -282 455 0 873 162 1182 458 116 111 195 204
265 311 207 317 297 634 288 1009 -4 161 -20 262 -70 436 -42 149 -154 380
-248 511 -249 348 -601 587 -1027 698 -146 39 -441 58 -590 40z m375 -35 c356
-41 657 -174 931 -411 109 -94 178 -168 267 -288 60 -80 76 -106 63 -106 -3 0
-76 -9 -163 -21 -138 -18 -189 -20 -398 -15 -132 3 -266 9 -297 12 -49 6 -58
4 -58 -9 0 -22 -56 -63 -128 -92 -79 -32 -109 -33 -108 -3 1 34 -37 46 -169
53 -133 7 -164 14 -125 25 14 4 66 5 116 2 63 -3 93 -1 98 7 4 6 22 11 39 12
24 0 27 2 14 8 -17 6 -17 8 3 26 29 26 42 52 51 98 11 61 -8 103 -75 163 -58
53 -60 54 -112 51 -43 -3 -51 -1 -43 9 7 9 7 19 -1 34 -11 20 -13 20 -29 6
-21 -19 -31 -20 -31 -4 0 16 41 58 57 58 27 0 12 19 -21 25 -84 16 -220 -110
-201 -187 3 -13 0 -32 -9 -43 -13 -18 -15 -19 -21 -3 -4 10 -2 31 3 48 9 25 8
31 -7 39 -14 8 -25 0 -59 -44 -40 -51 -42 -56 -41 -122 2 -104 6 -113 78 -150
34 -18 76 -33 92 -33 16 0 29 -4 29 -10 0 -5 -14 -10 -32 -10 -47 0 -149 -31
-154 -47 -14 -45 -11 -43 -56 -29 -53 16 -137 75 -173 122 -19 25 -32 33 -46
29 -10 -4 -47 -8 -81 -10 -77 -6 -228 -21 -323 -34 -121 -16 -330 -23 -445
-16 l-109 7 16 32 c26 50 155 221 215 283 339 356 755 542 1233 551 44 1 139
-5 210 -13z m-653 -896 c35 -28 75 -57 89 -64 30 -16 135 -35 196 -35 23 0 44
-4 47 -8 2 -4 9 -64 15 -132 6 -69 14 -144 17 -167 l5 -43 -43 6 c-42 5 -44 4
-83 -45 -46 -57 -71 -71 -124 -71 -24 0 -62 -13 -102 -34 -35 -18 -80 -37 -99
-41 -56 -11 -78 -31 -135 -119 -63 -98 -95 -126 -142 -126 -29 0 -47 13 -127
89 -57 53 -108 93 -130 101 l-36 12 -1 61 c0 34 0 171 1 304 l2 241 -38 26
c-21 14 -47 26 -56 26 -10 0 -18 4 -18 8 0 5 62 12 138 16 75 4 218 16 317 25
260 26 236 29 307 -30z m1488 20 l195 -1 -28 -24 -28 -24 1 -525 0 -525 -60 0
-60 0 0 76 0 76 40 -4 c22 -2 40 -1 40 2 0 3 -11 18 -25 34 -29 33 -31 46 -10
46 20 0 19 3 -15 58 -23 37 -26 48 -15 50 20 5 19 15 -5 54 -11 18 -20 41 -20
51 0 20 -32 36 -38 19 -2 -6 -14 -27 -28 -47 -25 -37 -31 -65 -14 -65 16 0 12
-18 -14 -58 -13 -20 -27 -47 -30 -59 -6 -18 -4 -21 15 -16 22 6 21 5 -5 -30
l-28 -37 23 -1 c13 -1 39 0 57 1 l32 2 0 -60 c0 -33 3 -67 6 -76 3 -9 2 -16
-4 -16 -5 0 -12 19 -15 41 -8 63 -36 85 -102 82 -30 -2 -66 2 -80 7 -23 9 -25
14 -25 71 0 59 1 61 23 54 87 -28 111 -11 57 40 -37 35 -38 47 -5 39 34 -8 32
4 -10 66 -39 57 -42 70 -20 70 22 0 18 20 -10 62 -14 20 -25 43 -25 51 0 19
-26 40 -40 32 -5 -3 -10 -12 -10 -19 0 -7 -16 -34 -34 -61 -35 -49 -38 -65
-10 -65 13 0 13 -4 0 -29 -9 -16 -27 -43 -42 -60 -22 -26 -23 -32 -10 -37 9
-3 27 -3 41 0 33 8 32 3 -11 -44 -29 -32 -34 -43 -25 -54 10 -12 6 -13 -24 -6
-20 5 -37 10 -39 12 -1 1 -9 19 -18 40 -13 28 -25 38 -50 43 -18 4 -48 22 -65
41 -20 21 -43 34 -57 34 -14 0 -28 5 -31 10 -8 13 -44 3 -70 -20 -60 -53 -88
-47 -130 27 -22 41 -25 55 -20 103 3 30 12 127 20 215 8 88 18 177 21 198 l6
37 59 0 c112 0 192 27 266 92 l47 41 131 -7 c71 -3 218 -6 325 -7z m502 -44
c98 -178 171 -436 188 -659 27 -357 -61 -711 -257 -1028 -20 -32 -38 -56 -40
-54 -3 3 5 42 16 87 12 45 19 85 16 88 -3 3 -20 0 -37 -7 -18 -6 -33 -10 -35
-8 -2 2 3 16 12 32 8 16 15 34 15 41 0 38 23 61 67 66 33 3 54 13 76 35 l30
31 -12 85 c-10 72 -9 91 3 121 17 40 21 38 -41 20 -10 -3 -27 -20 -38 -37
l-20 -33 -3 46 c-3 50 12 104 28 94 16 -10 97 31 115 59 13 20 15 37 10 78 -4
29 -7 83 -7 121 -1 57 -4 67 -18 67 -27 0 -100 -85 -101 -117 0 -28 0 -28 -10
-4 -5 13 -6 46 -3 72 6 41 11 50 30 55 35 9 91 79 99 122 4 25 -1 59 -15 101
-11 35 -20 74 -20 87 0 57 -44 32 -84 -47 l-24 -49 -10 68 c-7 52 -7 73 4 94
8 15 19 49 25 76 11 52 -1 101 -47 196 -33 69 -40 60 -79 -94 -12 -47 -12 -62
0 -111 8 -31 26 -76 39 -100 16 -28 27 -68 31 -109 l6 -65 -25 47 c-27 50 -59
78 -88 78 -16 0 -17 -8 -12 -77 3 -43 7 -90 9 -105 7 -42 52 -103 90 -121 l35
-17 0 -82 -1 -83 -21 42 c-11 24 -36 57 -55 73 -35 31 -72 36 -64 9 2 -8 3
-54 2 -103 -1 -81 1 -91 24 -122 14 -18 43 -45 65 -61 l41 -28 -6 -65 c-6 -64
-22 -162 -31 -189 -3 -9 -8 -11 -14 -5 -6 6 -4 30 5 64 l15 55 -33 65 c-38 73
-59 82 -68 30 -3 -19 -16 -59 -28 -89 -28 -69 -21 -110 26 -152 19 -17 46 -34
59 -39 l24 -9 -21 -53 c-19 -48 -56 -118 -64 -118 -1 0 -3 22 -4 50 -1 51 -18
93 -36 87 -5 -2 -14 -18 -19 -35 -5 -17 -22 -43 -38 -59 l-29 -28 20 45 c18
40 28 119 17 131 -4 3 -11 1336 -7 1397 0 12 9 25 19 29 9 3 25 13 34 21 27
23 138 51 193 49 49 -2 51 -3 77 -52z m-2817 -16 c39 -11 77 -27 86 -35 8 -8
20 -14 26 -14 6 0 13 -6 16 -14 3 -8 6 -324 7 -702 l1 -689 41 -72 c54 -94
113 -161 209 -234 82 -62 241 -150 344 -189 329 -127 525 -220 570 -270 10
-11 23 -20 29 -20 6 0 43 23 81 51 73 53 209 123 260 135 51 11 376 143 454
184 41 22 77 37 79 35 3 -2 -1 -18 -8 -35 -7 -17 -10 -51 -8 -80 l5 -49 -53
-36 c-63 -41 -70 -43 -49 -11 16 24 41 143 32 152 -7 7 -63 -22 -118 -62 -52
-38 -79 -90 -79 -153 0 -36 -3 -40 -42 -59 -77 -36 -167 -72 -180 -72 -21 0 4
17 44 29 53 17 84 58 91 122 7 58 4 67 -15 51 -7 -6 -38 -20 -68 -32 -30 -12
-67 -33 -81 -46 -29 -28 -53 -93 -43 -118 10 -25 -47 -43 -182 -57 -105 -11
-132 -10 -205 4 -46 9 -104 19 -129 23 -73 10 -83 19 -75 64 10 62 -13 90
-116 141 -49 23 -91 41 -94 38 -2 -3 0 -32 5 -65 7 -40 16 -65 31 -77 12 -10
20 -20 17 -22 -5 -6 -158 53 -172 67 -6 4 -11 29 -13 54 -1 25 -9 57 -18 70
-23 36 -157 126 -168 115 -13 -13 9 -115 30 -148 22 -33 5 -29 -65 16 l-61 40
6 54 c8 78 -12 113 -98 170 -39 26 -75 47 -80 47 -12 0 -11 -56 1 -102 8 -28
26 -49 71 -84 33 -25 58 -48 55 -51 -9 -9 -181 128 -223 178 l-26 30 27 48
c45 84 31 151 -45 206 -18 14 -37 32 -42 40 -12 23 -23 18 -37 -15 -15 -36 -2
-98 32 -157 14 -24 17 -34 7 -26 -22 18 -96 171 -103 215 -6 34 -4 38 22 52
76 39 99 106 67 196 -8 23 -15 60 -15 81 0 55 -21 50 -64 -14 -36 -54 -41 -81
-30 -148 4 -22 2 -39 -5 -43 -6 -4 -11 0 -11 11 0 10 -5 67 -10 127 -9 87 -8
111 2 117 97 56 117 94 98 187 -7 36 -13 78 -12 93 2 67 -42 50 -98 -37 l-27
-44 -7 38 c-3 20 -6 56 -6 80 0 41 1 42 35 42 26 0 43 8 68 34 43 42 51 81 36
176 -17 109 -15 106 -51 78 -54 -42 -71 -72 -79 -145 l-8 -68 3 81 c2 76 5 83
40 130 37 48 38 51 32 114 -10 116 -21 173 -33 177 -6 2 -24 -15 -40 -39 -64
-93 -78 -178 -44 -253 10 -22 17 -44 15 -50 -1 -5 -5 -22 -8 -37 l-6 -27 -50
50 c-28 28 -56 49 -62 47 -12 -4 -23 -147 -14 -184 11 -42 55 -84 96 -90 l39
-6 3 -77 c2 -42 2 -78 0 -80 -1 -3 -24 16 -50 41 -26 25 -59 48 -74 52 -31 7
-29 22 -13 -130 9 -88 54 -142 132 -158 34 -8 33 -5 48 -131 l6 -50 -25 30
c-26 33 -111 83 -122 73 -3 -4 1 -38 9 -75 9 -37 18 -84 22 -104 7 -46 41 -78
101 -93 l49 -12 26 -77 c18 -51 22 -77 15 -77 -7 0 -16 4 -22 9 -5 5 -22 11
-39 13 -25 2 -30 0 -28 -17 4 -43 42 -157 58 -175 25 -27 81 -43 129 -37 40 5
44 3 114 -63 l73 -67 -56 -5 c-84 -7 -89 -19 -26 -78 29 -27 68 -54 87 -59 39
-11 95 1 114 24 17 21 20 20 91 -22 l63 -38 -59 -10 c-32 -5 -60 -15 -62 -20
-5 -15 99 -103 144 -121 53 -23 110 -3 130 44 8 19 19 32 26 29 7 -3 41 -17
77 -32 84 -35 88 -40 34 -41 -28 -1 -55 -8 -71 -21 -35 -25 -40 -43 -13 -43
12 0 51 -16 86 -36 80 -44 123 -41 178 12 l36 35 105 -23 c58 -13 105 -26 105
-30 0 -4 -9 -10 -20 -13 -11 -3 -20 -13 -20 -22 0 -17 32 -15 106 8 37 11 46
10 86 -9 24 -12 50 -22 56 -22 17 0 15 20 -4 41 -15 16 -13 18 28 24 25 4 58
8 74 10 16 1 43 6 60 10 28 6 32 4 44 -24 17 -43 46 -61 100 -62 l45 -1 -45
-14 c-143 -46 -422 -71 -589 -54 -443 48 -789 213 -1081 516 -240 249 -389
528 -461 865 -20 89 -23 134 -23 319 -1 188 2 229 23 325 28 132 90 324 132
408 l31 60 76 -6 c43 -3 109 -16 147 -28z m1128 -844 c29 -14 72 -37 96 -50
24 -14 52 -25 63 -25 17 0 18 -14 18 -245 0 -135 -2 -245 -5 -245 -3 0 -29 13
-58 29 -45 25 -70 31 -182 42 -117 11 -149 10 -325 -9 -235 -26 -471 -44 -478
-38 -7 7 166 317 191 343 14 15 48 28 95 38 73 15 217 76 237 99 5 7 53 29
105 49 52 19 102 38 110 41 26 9 79 -2 133 -29z m672 -25 c34 -22 64 -40 68
-40 4 0 35 -13 69 -28 35 -16 88 -36 118 -45 30 -9 82 -26 115 -36 l60 -19 83
-193 c45 -106 80 -194 78 -197 -5 -4 -113 11 -201 29 -27 6 -81 14 -120 19
-38 4 -110 16 -160 25 -111 21 -366 15 -461 -11 -114 -31 -104 -35 -104 37 -1
35 -2 140 -4 233 l-2 168 30 13 c17 8 58 26 91 41 117 52 127 55 204 49 66 -4
82 -10 136 -45z m-735 -568 c0 -4 -7 -18 -16 -30 -9 -13 -14 -26 -11 -29 4 -4
21 18 43 55 0 1 8 0 17 -4 13 -5 14 -10 6 -26 -6 -11 -8 -22 -6 -25 3 -2 10 5
17 16 14 28 44 28 37 1 -5 -21 7 -28 18 -10 10 16 35 12 35 -6 0 -13 3 -14 13
-5 8 6 16 9 19 6 8 -8 84 -13 243 -15 101 -1 141 -5 122 -10 -16 -5 -78 -9
-139 -9 -60 0 -114 -4 -120 -7 -33 -21 81 -36 118 -16 31 17 127 -15 121 -40
-8 -28 134 -68 242 -68 71 0 87 3 114 24 42 31 133 77 140 70 3 -3 -10 -19
-29 -36 -60 -53 -51 -58 106 -58 197 0 182 -19 -17 -22 l-158 -3 -9 -27 c-7
-19 -5 -39 8 -72 l18 -46 49 0 c27 0 49 -4 49 -10 0 -5 -18 -10 -41 -10 -36 0
-40 -2 -34 -20 4 -14 2 -20 -8 -20 -8 0 -26 9 -40 20 -23 18 -40 20 -191 20
-159 0 -165 -1 -180 -22 -9 -12 -16 -31 -16 -41 0 -18 -1 -18 -22 -3 -77 55
-83 56 -302 54 l-205 -2 5 -23 c8 -32 -12 -29 -60 7 l-40 30 -198 0 c-235 0
-276 18 -50 22 l147 3 -75 19 c-81 20 -166 60 -174 83 -5 12 0 13 27 8 l32 -7
-20 21 c-18 19 -32 20 -172 22 -84 0 -153 5 -153 9 0 15 58 20 185 18 119 -2
121 -1 209 36 49 21 119 44 155 50 69 12 91 21 91 37 0 5 -151 9 -386 9 -254
0 -383 3 -379 10 4 6 148 10 400 10 l394 0 27 35 c25 33 44 45 44 27z m1011
-72 c260 0 379 -3 379 -11 0 -10 -770 -12 -798 -1 -11 4 -11 6 0 13 7 5 19 7
26 4 8 -3 184 -5 393 -5z m369 -175 c0 -20 7 -49 15 -65 15 -28 14 -29 -28
-65 -23 -20 -51 -41 -61 -47 -16 -9 -18 -8 -12 8 10 26 20 114 13 114 -3 0
-22 -10 -42 -21 -20 -12 -38 -19 -41 -17 -5 5 136 126 149 127 4 1 7 -15 7
-34z m229 -92 c-111 -144 -252 -284 -380 -375 -114 -82 -255 -157 -384 -203
-102 -37 -139 -45 -90 -18 17 9 44 28 62 44 17 15 41 30 52 34 36 11 24 21
-46 40 l-68 18 64 29 c64 28 64 28 85 9 70 -66 148 -51 254 47 60 56 57 69
-19 76 -24 3 -46 5 -48 5 -2 1 15 15 39 32 l43 31 37 -21 c22 -12 56 -21 79
-21 37 0 48 6 90 48 54 54 87 112 70 122 -6 4 -32 5 -57 2 l-47 -4 58 54 c58
54 59 55 97 45 29 -8 46 -7 76 5 22 9 41 16 43 17 2 1 -3 -7 -10 -16z m-1058
-260 c7 -7 -10 -12 -63 -17 -90 -7 -497 -1 -506 8 -19 20 47 25 290 22 175 -1
272 -6 279 -13z"/>
<path d="M2527 4084 c-17 -35 -18 -36 -72 -32 -63 4 -71 -5 -19 -22 42 -14 49
-27 34 -65 -6 -15 -9 -30 -6 -32 2 -2 24 6 48 18 l44 21 41 -20 c46 -24 59
-19 38 12 -23 31 -19 40 28 63 l42 22 -56 0 c-53 1 -56 2 -72 36 -9 19 -20 35
-25 35 -5 0 -16 -16 -25 -36z"/>
<path d="M2029 3998 c-13 -30 -18 -33 -69 -38 l-55 -5 43 -23 42 -23 -16 -30
c-8 -17 -13 -33 -11 -36 3 -2 23 5 46 17 l41 20 40 -20 c54 -28 63 -26 45 10
-22 42 -20 46 28 66 l42 19 -58 3 c-55 3 -59 5 -74 38 -9 18 -20 34 -23 34 -4
0 -13 -15 -21 -32z"/>
<path d="M2933 3995 c-16 -33 -19 -34 -77 -37 l-61 -3 47 -25 48 -25 -15 -29
c-9 -16 -13 -31 -10 -34 3 -3 23 3 45 13 41 18 42 18 87 -4 l46 -22 -5 23 c-3
13 -9 31 -13 40 -5 14 2 21 34 34 23 9 41 20 41 25 0 5 -25 9 -56 9 -53 0 -55
1 -70 35 -8 19 -17 35 -19 35 -3 0 -13 -16 -22 -35z"/>
<path d="M1727 3805 c-16 -34 -19 -35 -74 -36 l-58 0 43 -22 c44 -22 49 -34
31 -69 -16 -29 -6 -32 40 -8 l41 20 40 -20 c54 -28 63 -26 45 10 -22 42 -20
46 28 66 l42 19 -58 3 c-55 3 -59 5 -74 38 -9 18 -20 34 -23 34 -3 0 -14 -16
-23 -35z"/>
<path d="M3242 3818 c-6 -6 -12 -18 -12 -24 0 -20 -20 -28 -72 -25 -28 1 -48
-2 -48 -9 0 -5 3 -10 8 -10 4 0 21 -9 39 -20 31 -18 32 -20 18 -47 -8 -15 -12
-29 -10 -31 3 -3 25 3 49 12 41 16 47 16 75 2 16 -9 37 -16 46 -16 15 0 15 2
1 22 -24 33 -20 43 24 63 22 10 40 21 40 26 0 4 -21 7 -47 7 -70 0 -73 1 -73
15 0 7 -6 21 -13 30 -10 14 -15 15 -25 5z"/>
<path d="M1427 3616 c-15 -33 -20 -35 -69 -38 l-53 -3 38 -19 c39 -21 44 -34
26 -68 -16 -29 -8 -30 42 -7 l44 22 38 -22 c46 -27 54 -22 37 19 -15 35 -17
31 35 58 l40 21 -58 1 c-56 0 -58 1 -74 35 -9 19 -20 35 -23 35 -3 0 -14 -16
-23 -34z"/>
<path d="M3532 3605 c-12 -33 -15 -34 -70 -37 -44 -3 -52 -5 -37 -12 11 -5 30
-16 42 -24 21 -13 22 -15 7 -44 -9 -16 -13 -32 -11 -34 3 -3 25 5 49 17 l44
21 44 -22 43 -22 -7 24 c-14 44 -11 52 29 75 l40 23 -53 0 c-50 0 -54 2 -73
35 -12 19 -24 35 -28 35 -4 0 -13 -16 -19 -35z"/>
<path d="M2110 2355 c0 -8 -9 -15 -20 -15 -11 0 -20 5 -20 10 0 19 -25 9 -44
-17 -15 -21 -17 -29 -7 -45 10 -16 8 -20 -14 -28 -20 -8 -25 -16 -25 -44 0
-19 6 -36 13 -39 9 -4 9 -7 0 -17 -10 -11 -14 -10 -19 3 -3 9 -9 17 -13 17 -8
0 -181 -205 -181 -214 0 -3 47 18 105 47 81 40 108 49 114 39 5 -9 17 -11 35
-6 20 5 25 3 21 -8 -8 -21 62 -58 74 -40 7 11 12 12 29 1 18 -11 24 -10 40 5
12 10 18 25 15 36 -4 13 1 19 19 22 19 2 24 10 26 41 2 20 7 37 11 37 4 0 15
6 25 13 18 13 18 17 -8 93 -37 110 -41 115 -69 82 -25 -30 -43 -37 -34 -13 4
8 -5 23 -20 35 -30 24 -53 26 -53 5z"/>
<path d="M2817 2413 c-2 -5 -7 -25 -11 -45 -8 -43 -26 -51 -26 -12 0 16 -5 24
-12 22 -16 -5 -24 -48 -9 -48 5 0 11 -10 13 -22 6 -38 24 -30 40 19 l15 48 33
-67 34 -67 -40 -58 c-21 -32 -42 -66 -47 -77 -7 -17 -9 -18 -25 -2 -25 22 -31
20 -43 -11 l-10 -27 -12 23 c-16 31 -30 29 -39 -7 -9 -34 -37 -63 -39 -41 -2
16 0 22 11 61 6 19 5 27 -3 25 -8 -1 -12 20 -12 70 0 39 -3 74 -7 78 -4 4 -8
-65 -10 -154 l-3 -162 35 6 c19 4 42 11 50 17 11 7 7 8 -12 3 -33 -6 -34 1
-11 50 19 40 30 44 35 13 5 -34 36 -35 40 -2 4 37 26 42 38 9 8 -22 13 -25 24
-16 8 7 12 21 9 32 -6 22 62 133 76 125 7 -5 22 -52 25 -81 5 -37 36 -40 36
-3 0 17 2 18 15 8 8 -7 15 -23 15 -36 0 -29 18 -41 26 -17 27 82 43 93 64 43
13 -31 24 -37 35 -20 11 18 23 11 34 -20 5 -16 15 -30 20 -30 17 0 13 18 -9
40 -32 32 -40 100 -12 100 10 0 29 -42 34 -75 2 -11 10 -20 18 -20 8 0 16 9
18 20 2 11 8 24 12 29 11 11 52 -68 59 -113 6 -37 28 -53 36 -27 17 53 15 52
39 21 24 -30 43 -22 31 15 -4 13 1 24 20 36 19 12 23 20 15 28 -8 8 -18 3 -37
-18 -23 -27 -26 -28 -38 -13 -15 21 -35 22 -35 2 0 -29 -17 -14 -38 33 -11 26
-23 55 -26 65 -7 23 -23 22 -36 -3 -6 -11 -14 -20 -19 -20 -7 0 -31 49 -45 93
-7 22 -26 13 -26 -13 0 -25 -10 -50 -21 -50 -5 0 -21 18 -35 40 -15 22 -29 38
-32 35 -3 -3 2 -13 10 -22 24 -27 50 -83 39 -83 -5 0 -13 9 -16 20 -9 29 -31
24 -45 -10 -15 -37 -27 -38 -40 -5 -11 29 -25 32 -39 8 -7 -14 -11 -9 -21 26
-22 82 3 132 37 72 20 -35 39 -35 35 -1 -2 18 2 21 17 17 16 -4 18 -1 12 16
-11 29 -27 32 -34 5 -6 -21 -7 -21 -27 -3 -11 10 -20 24 -20 32 0 24 -22 13
-33 -17 -14 -37 -20 -37 -36 -2 -7 15 -19 40 -27 55 -8 16 -14 37 -14 48 0 19
-15 26 -23 12z"/>
<path d="M3920 4211 c0 -6 5 -13 10 -16 22 -13 6 -37 -101 -149 -107 -112
-132 -129 -156 -105 -6 6 -13 7 -16 2 -6 -10 124 -126 132 -118 2 3 -2 16 -9
30 -13 24 -9 29 96 137 97 100 113 113 142 112 17 -1 32 2 32 6 0 9 -114 110
-124 110 -3 0 -6 -4 -6 -9z"/>
<path d="M4095 4054 c5 -27 -8 -57 -89 -201 -53 -93 -96 -175 -96 -182 0 -7 8
-10 18 -7 9 2 60 15 112 27 52 12 104 26 115 30 55 22 129 37 165 34 22 -3 40
-2 40 2 0 10 -64 92 -72 93 -5 0 -8 -11 -8 -25 0 -13 -8 -28 -17 -33 -29 -14
-233 -66 -238 -60 -5 4 106 211 122 228 2 2 13 -1 23 -8 51 -31 39 4 -25 73
-53 57 -55 59 -50 29z"/>
<path d="M810 3968 c-52 -27 -98 -87 -107 -141 -22 -137 167 -279 300 -224 43
18 103 87 116 131 26 95 -27 189 -134 237 -55 25 -121 24 -175 -3z m199 -97
c93 -74 93 -183 1 -221 -106 -44 -304 135 -255 231 18 35 30 42 80 49 50 8
119 -16 174 -59z"/>
<path d="M4383 3673 c2 -26 -7 -33 -145 -103 -145 -73 -147 -74 -167 -56 -12
11 -24 17 -27 13 -5 -4 47 -107 121 -237 11 -20 21 -25 53 -24 22 1 48 4 57 8
26 9 7 26 -30 26 -25 0 -40 8 -63 34 -27 31 -60 102 -50 110 16 15 124 56 135
52 8 -3 22 -25 33 -48 19 -42 19 -43 -1 -64 -31 -33 -10 -35 50 -5 55 26 85
60 42 46 -13 -4 -28 -1 -37 6 -13 11 -54 81 -54 92 0 2 27 16 60 32 l59 28 20
-24 c11 -13 28 -41 37 -62 17 -37 17 -38 -4 -66 -11 -16 -19 -31 -16 -34 4 -4
54 20 82 39 5 3 -65 140 -105 207 -38 63 -53 72 -50 30z"/>
<path d="M625 3621 c-46 -12 -72 -28 -98 -64 -41 -54 -122 -215 -114 -224 5
-4 16 3 26 15 l17 23 105 -46 c57 -25 127 -58 154 -73 47 -26 50 -30 47 -62
-5 -61 -20 -66 -104 -41 -249 76 -243 74 -246 104 -5 45 -19 31 -41 -42 -26
-85 -26 -104 -2 -73 l18 24 124 -36 c197 -58 212 -64 206 -92 -2 -14 -1 -27 3
-29 11 -6 45 79 59 144 6 29 20 65 31 78 11 14 20 31 20 37 0 6 6 23 14 38 55
105 53 192 -7 256 -48 52 -145 81 -212 63z m116 -88 c62 -32 99 -80 99 -130 0
-34 -24 -98 -41 -108 -9 -6 -268 111 -289 131 -13 13 -12 19 8 57 17 33 33 47
65 59 61 24 96 22 158 -9z"/>
<path d="M4568 3323 c-3 -27 -9 -30 -148 -70 -168 -48 -185 -50 -200 -23 -6
11 -15 18 -19 15 -11 -6 31 -141 49 -158 10 -10 12 -8 7 10 -6 28 4 36 78 61
98 33 100 13 10 -102 l-64 -83 14 -47 c8 -25 12 -53 9 -61 -4 -8 -2 -15 4 -15
5 0 9 -30 8 -68 -2 -101 45 -158 128 -156 33 1 46 8 71 37 17 19 39 58 49 86
33 94 80 126 119 83 37 -41 10 -113 -49 -132 -58 -20 -40 -31 38 -25 82 7 90
11 66 29 -14 10 -15 19 -7 53 20 75 -33 147 -107 147 -57 0 -82 -22 -123 -109
-21 -44 -46 -86 -54 -94 -26 -21 -69 -9 -89 24 -27 47 -10 98 42 122 22 10 40
21 40 26 0 4 -25 7 -56 7 l-57 0 6 35 c4 22 26 59 58 99 l53 64 31 -23 c47
-36 85 -40 125 -13 56 38 59 69 19 198 -19 61 -37 110 -41 110 -4 0 -8 -12
-10 -27z m21 -107 c7 -8 11 -32 9 -53 -3 -32 -9 -41 -39 -57 -35 -19 -38 -19
-63 -3 -14 10 -33 31 -42 48 -19 37 -12 44 52 54 24 3 46 10 49 16 9 13 21 11
34 -5z"/>
<path d="M296 2923 c-14 -76 -26 -146 -26 -155 0 -11 13 -21 38 -27 61 -17 69
-14 40 17 -33 35 -41 64 -25 86 13 17 19 17 161 -3 81 -12 154 -25 162 -28 8
-3 14 -16 14 -30 0 -36 23 -23 31 18 17 84 20 129 10 129 -6 0 -11 -6 -11 -14
0 -35 -39 -36 -223 -6 -65 11 -122 22 -127 25 -9 6 6 61 23 83 5 6 20 12 33
12 13 0 24 4 24 9 0 12 -26 21 -64 21 l-33 0 -27 -137z"/>
<path d="M657 2713 c-5 -4 -15 -22 -22 -39 -8 -19 -38 -49 -80 -78 l-67 -47
-44 41 c-30 28 -52 40 -73 40 -35 0 -84 -38 -100 -78 -14 -34 -11 -221 4 -225
6 -1 11 8 13 21 2 12 9 22 15 23 80 7 325 6 336 -1 31 -18 -9 -57 -168 -165
-88 -60 -161 -112 -161 -117 0 -10 52 -23 195 -49 143 -25 222 -46 230 -59 10
-16 25 -11 25 8 0 26 -27 97 -37 97 -4 0 -10 -11 -11 -24 -3 -21 -7 -23 -45
-17 -56 9 -63 17 -77 88 -11 60 -11 62 12 80 43 35 55 39 68 23 23 -27 31 -16
25 33 -11 83 -24 196 -24 215 -1 24 -21 11 -21 -13 0 -23 -41 -33 -110 -28
-62 4 -62 25 2 68 29 19 62 43 73 52 11 10 28 23 38 30 15 11 18 25 15 72 -2
32 -7 54 -11 49z m-237 -173 c17 -9 40 -58 40 -86 0 -18 -140 -20 -158 -2 -19
19 -14 43 14 72 28 27 70 34 104 16z"/>
<path d="M4336 2519 c-8 -83 -8 -109 3 -109 5 0 12 11 15 26 l7 25 167 -6
c163 -7 192 -13 192 -41 0 -8 5 -14 10 -14 6 0 10 35 10 85 0 47 -4 85 -9 85
-5 0 -11 -10 -13 -22 -3 -22 -7 -23 -138 -26 -74 -2 -154 0 -177 3 -37 5 -43
10 -43 31 0 49 -17 22 -24 -37z"/>
<path d="M4640 2371 c0 -5 8 -12 18 -15 28 -9 41 -39 33 -77 -8 -39 7 -39
-190 -9 -74 11 -138 23 -142 27 -4 5 -9 16 -11 26 -6 33 -22 23 -29 -18 -17
-105 -19 -125 -11 -125 5 0 14 11 20 24 7 16 17 23 29 20 10 -3 86 -15 168
-27 149 -22 150 -22 147 -47 -4 -35 -34 -73 -63 -81 l-24 -6 28 -12 c46 -18
76 -14 82 12 7 33 45 273 45 285 0 11 -12 16 -67 27 -20 4 -33 3 -33 -4z"/>
<path d="M4243 1983 c-3 -10 -17 -45 -29 -77 -26 -63 -23 -85 4 -48 l17 22 68
-19 c38 -10 72 -23 76 -27 99 -118 141 -181 141 -211 0 -37 16 -19 40 44 21
56 20 77 -2 55 -7 -7 -17 -12 -24 -12 -17 0 -117 121 -107 130 8 8 125 30 156
30 10 0 17 -8 17 -20 0 -32 16 -23 37 23 45 93 47 141 4 98 -12 -12 -62 -29
-135 -46 -122 -28 -142 -27 -219 12 -23 12 -28 19 -23 39 7 28 -11 34 -21 7z"/>
<path d="M470 1923 c-50 -26 -70 -71 -58 -130 13 -61 64 -179 75 -173 4 3 6
12 5 21 -4 24 12 33 138 77 63 23 129 46 147 53 28 11 35 11 53 -6 38 -35 36
-17 -11 92 -23 52 -41 65 -37 26 3 -25 -3 -31 -42 -50 -61 -29 -102 -37 -99
-21 4 22 -18 62 -47 89 -39 36 -80 44 -124 22z"/>
<path d="M851 1357 c-59 -30 -84 -68 -89 -136 -4 -66 18 -109 70 -141 34 -21
98 -27 98 -10 0 6 -12 10 -28 10 -50 0 -102 57 -102 111 0 61 99 139 178 139
80 0 120 -69 82 -142 -23 -45 -14 -48 40 -12 45 30 48 39 20 54 -11 6 -20 18
-20 28 0 28 -36 74 -77 99 -49 30 -114 30 -172 0z"/>
<path d="M3991 1347 c-14 -6 -51 -48 -82 -93 -32 -44 -69 -88 -83 -98 -32 -20
-36 -42 -5 -25 19 10 29 3 95 -64 41 -42 78 -87 84 -102 22 -57 -49 -126 -107
-104 -33 12 -58 34 -125 112 -42 48 -48 60 -38 72 7 9 10 18 7 21 -6 6 -107
-76 -107 -87 0 -3 11 -4 25 -1 21 4 39 -10 108 -76 69 -68 89 -82 125 -88 38
-6 46 -3 87 30 40 34 65 79 65 123 0 7 -36 51 -80 97 -78 83 -96 120 -66 132
8 3 52 -18 98 -47 128 -79 150 -98 143 -120 -12 -36 13 -19 48 34 19 28 34 53
32 55 -2 2 -13 -2 -25 -8 -17 -9 -28 -7 -65 17 -49 31 -61 65 -22 62 12 -1 54
-1 94 -1 70 2 73 3 99 37 30 39 25 57 -9 35 -12 -7 -57 -16 -99 -18 l-78 -5 0
37 c0 27 -7 44 -26 61 -30 28 -57 31 -93 12z"/>
<path d="M1100 1044 c-103 -45 -153 -63 -172 -59 -36 6 -35 1 5 -35 38 -35 54
-38 53 -8 -1 15 8 25 30 34 30 12 34 11 73 -23 36 -30 41 -40 36 -62 -10 -38
-25 -52 -48 -45 -10 3 -18 2 -16 -3 6 -14 85 -83 95 -83 5 0 9 18 9 39 0 21 6
49 12 62 13 26 80 205 85 228 2 7 -1 15 -7 17 -5 1 -75 -26 -155 -62z"/>
<path d="M1365 980 c17 -19 16 -22 -30 -102 -70 -121 -94 -151 -116 -145 -37
10 -18 -13 31 -38 28 -14 50 -21 50 -16 0 6 -4 13 -10 16 -5 3 -10 12 -10 20
0 15 77 152 91 160 9 6 2 -211 -7 -226 -2 -4 -1 -10 4 -13 10 -6 59 24 147 88
63 46 96 56 62 18 -10 -10 -17 -23 -17 -27 0 -5 -14 -33 -32 -62 -26 -42 -37
-53 -62 -55 -30 -3 -28 -5 33 -36 63 -33 85 -36 61 -8 -10 13 -5 28 25 83 78
142 95 163 121 157 37 -9 28 8 -17 34 -46 27 -33 32 -167 -64 -41 -30 -79 -54
-84 -54 -5 0 -6 52 -2 124 l7 124 -41 21 c-51 26 -60 26 -37 1z"/>
<path d="M3587 966 c-3 -7 -19 -16 -36 -19 -75 -15 -107 -99 -56 -147 22 -21
39 -25 118 -30 103 -6 117 -11 117 -45 0 -49 -89 -77 -128 -42 -30 28 -46 21
-27 -10 31 -52 46 -68 53 -58 4 6 29 19 57 30 89 37 116 110 58 163 -21 19
-35 22 -117 22 -98 0 -116 7 -116 47 0 44 78 59 122 23 46 -36 42 6 -5 58 -24
25 -33 27 -40 8z"/>
<path d="M3280 810 c0 -5 -16 -10 -35 -10 -77 0 -138 -64 -115 -120 14 -34 71
-66 135 -75 88 -12 122 -55 73 -89 -34 -24 -85 -20 -114 9 -38 38 -45 30 -22
-25 20 -50 31 -59 43 -40 3 6 20 10 36 10 84 0 152 86 114 143 -19 30 -49 42
-134 56 -72 12 -91 24 -91 56 0 16 9 26 29 35 34 14 67 6 98 -23 32 -29 38
-15 17 37 -18 42 -34 60 -34 36z"/>
<path d="M1756 650 c-66 -72 -116 -120 -127 -120 -34 0 -20 -18 28 -34 56 -19
53 -19 53 -1 0 8 -4 15 -10 15 -18 0 -11 26 13 48 23 22 24 22 77 4 48 -15 55
-21 61 -50 5 -26 3 -35 -14 -47 -26 -18 -25 -19 47 -39 65 -19 78 -16 51 14
-11 12 -21 41 -23 67 -12 143 -28 257 -38 260 -6 2 -59 -51 -118 -117z"/>
<path d="M3019 736 c-9 -8 -216 -50 -257 -52 -40 -1 -75 -14 -39 -14 9 0 19
-5 22 -10 8 -14 25 -183 18 -190 -2 -2 -48 41 -101 97 l-97 102 -113 3 c-105
3 -111 2 -91 -13 21 -15 21 -21 14 -143 -7 -124 -8 -128 -32 -137 -38 -14 -23
-20 59 -25 70 -4 72 -4 51 12 -26 18 -28 51 -16 202 6 81 6 82 33 82 52 0 59
-14 66 -152 6 -113 5 -128 -9 -128 -9 0 -19 -4 -22 -10 -4 -6 17 -10 54 -10
34 0 61 4 61 10 0 6 -6 10 -13 10 -8 0 -19 10 -25 23 -14 30 -22 177 -9 177 6
0 57 -46 114 -102 56 -57 108 -105 114 -107 8 -2 10 13 5 55 -3 33 -9 99 -12
148 -6 79 -5 91 11 103 45 32 54 17 90 -137 l26 -114 -23 -19 c-23 -18 -23
-18 32 -11 30 3 64 10 75 14 11 4 44 11 72 15 60 8 58 6 67 58 8 43 -8 51 -26
11 -15 -32 -56 -54 -103 -54 -36 0 -42 6 -47 50 -2 14 -7 31 -12 38 -12 19 4
32 48 39 27 4 41 1 56 -12 27 -25 31 -17 18 35 -11 48 -28 76 -28 48 0 -24
-39 -48 -76 -48 -29 0 -32 3 -43 46 -7 26 -8 51 -4 55 5 5 34 11 65 15 48 6
59 4 64 -10 3 -9 13 -16 21 -16 15 0 10 33 -9 58 -10 11 -40 17 -49 8z"/>
<path d="M2030 714 c0 -4 8 -12 17 -19 16 -12 16 -20 -1 -131 -18 -120 -27
-144 -52 -144 -8 0 -14 -4 -14 -9 0 -8 131 -33 138 -26 3 3 -5 12 -16 22 -19
16 -20 23 -12 67 6 27 12 51 14 54 10 9 28 -13 67 -84 31 -57 47 -75 67 -80
15 -3 32 -7 38 -9 6 -2 17 1 25 6 11 7 9 10 -9 15 -14 4 -38 32 -64 76 -22 38
-39 70 -37 71 2 2 16 8 31 15 64 27 73 93 18 133 -28 21 -210 58 -210 43z"/>
</g>
</svg>
